Land_normalized_Motion_pl10
version=1
nRows=14
nColumns=43
inDegrees=yes
endheader
time		pelvis_tilt		pelvis_list		pelvis_rotation		pelvis_tx		pelvis_ty		pelvis_tz		hip_flexion_r		hip_adduction_r		hip_rotation_r		knee_angle_r		ankle_angle_r		subtalar_angle_r		mtp_angle_r		hip_flexion_l		hip_adduction_l		hip_rotation_l		knee_angle_l		ankle_angle_l		subtalar_angle_l		mtp_angle_l		lumbar_extension		lumbar_bending		lumbar_rotation		neck_flexion		neck_lateral_bending		neck_rotation		arm_flex_r		arm_add_r		arm_rot_r		elbow_flex_r		pro_sup_r		wrist_flex_r		wrist_dev_r		hand_finger_flex_r		arm_flex_l		arm_add_l		arm_rot_l		elbow_flex_l		pro_sup_l		wrist_flex_l		wrist_dev_l		hand_finger_flex_l		
0.775000		2.109136		-4.373315		91.159388		-0.001008		1.018600		0.579063		39.459380		-6.862569		-12.723143		-28.121400		-25.990428		-0.195852		13.971772		40.648400		-8.301255		-3.960295		-31.277135		-21.453065		-9.927053		0.605704		-16.525472		4.224613		-1.253569		-26.531307		-0.949374		3.124303		-75.739763		-0.115346		-70.856619		52.845375		96.864722		-25.222019		-10.789255		22.668641		-82.771841		-12.105674		-67.066453		29.981572		105.515375		-43.051659		6.348159		76.500067		
0.777828		2.051821		-3.958577		91.076873		-0.001032		1.007858		0.573961		39.772614		-6.978293		-12.546682		-29.927532		-25.818091		-0.092979		14.066677		40.987429		-8.325238		-3.805407		-33.150120		-21.149669		-9.758390		0.732251		-17.125008		4.163841		-1.147286		-26.226421		-0.844727		3.195154		-74.830980		0.117254		-71.687665		51.958678		96.253880		-25.206394		-10.763030		22.576376		-81.984320		-11.950021		-66.783654		29.467364		105.579353		-42.978061		6.467785		76.524155		
0.780657		1.996770		-3.527264		90.987230		-0.001029		0.997076		0.568889		40.083804		-7.090875		-12.377101		-31.702263		-25.712013		0.105256		14.154165		41.323415		-8.367399		-3.702971		-35.015417		-20.848864		-9.465368		0.870088		-17.761865		4.096017		-1.023071		-25.916970		-0.717657		3.217219		-73.905736		0.246881		-72.337726		50.971692		95.495282		-25.051247		-10.829590		22.547485		-81.151076		-11.828068		-66.399645		29.002556		105.600746		-42.877496		6.544841		76.541845		
0.783485		1.954891		-3.056034		90.905727		-0.001033		0.986375		0.563710		40.331314		-7.191101		-12.240720		-33.382436		-25.762011		0.311070		14.209705		41.621964		-8.426750		-3.643633		-36.837897		-20.705559		-9.178714		0.972840		-18.410155		4.044798		-0.935338		-25.861347		-0.622529		3.210358		-73.055242		0.262699		-72.701230		50.043379		94.835176		-24.886488		-10.873374		22.547188		-80.302581		-11.657155		-66.009739		28.671926		105.581977		-42.771122		6.582899		76.551715		
0.786313		1.920315		-2.449779		90.768099		-0.000881		0.975848		0.558578		40.432298		-7.246100		-12.084270		-34.968995		-25.783574		0.743138		14.314321		41.761898		-8.571216		-3.676268		-38.623447		-20.348501		-8.469060		1.288967		-19.269782		3.963461		-0.753908		-25.644210		-0.448581		3.132569		-72.214608		0.143143		-72.542322		48.832239		92.810903		-24.702277		-11.715058		22.552443		-79.417028		-11.586348		-65.223583		28.332549		104.860900		-42.712056		6.383991		76.461917		
0.789141		1.890335		-1.903719		90.642950		-0.000764		0.965068		0.553720		40.633034		-7.297243		-11.907093		-36.517411		-25.754180		1.207913		14.422234		41.988046		-8.675152		-3.603177		-40.343623		-19.931062		-7.759324		1.607978		-20.148269		3.872675		-0.543909		-25.058758		-0.194848		3.034926		-71.225207		-0.093235		-72.326766		47.437868		90.901707		-24.528031		-12.302517		22.597219		-78.458251		-11.582074		-64.290405		28.022868		104.239790		-42.609849		6.156511		76.390201		
0.791970		1.875695		-1.456572		90.579438		-0.000815		0.954098		0.548875		40.920296		-7.362271		-11.771248		-37.962748		-25.739016		1.571534		14.468446		42.346381		-8.709410		-3.433718		-41.997256		-19.702830		-7.325375		1.719494		-20.875512		3.825461		-0.438278		-24.707763		0.041163		2.948915		-70.253179		-0.376091		-72.190290		46.315750		90.376347		-24.350302		-12.061123		22.709967		-77.464767		-11.478357		-63.630665		27.880297		104.205270		-42.421745		6.059271		76.393975		
0.794798		1.844274		-0.983500		90.507425		-0.000995		0.943279		0.543819		41.116535		-7.437731		-11.665669		-39.237691		-25.770273		1.773148		14.492976		42.664313		-8.732307		-3.352802		-43.599892		-19.648684		-7.072384		1.771098		-21.531997		3.815154		-0.392917		-24.948522		0.095172		2.910127		-69.440989		-0.561668		-71.983015		45.662765		90.126417		-24.224967		-11.938840		22.758586		-76.446485		-11.275746		-63.200680		27.906945		104.183075		-42.287993		6.004488		76.399258		
0.797626		1.924037		-0.141665		90.345276		-0.000595		0.932800		0.539064		40.882698		-7.345690		-11.548035		-40.467924		-24.726410		3.297491		14.499719		42.558706		-9.048349		-3.284086		-45.220016		-18.056980		-4.852631		2.209631		-22.841065		3.763252		-0.115893		-24.067047		0.491843		2.765584		-68.498358		-1.156071		-70.702966		44.033418		87.125533		-24.022181		-13.192438		23.145088		-75.438481		-11.386047		-61.512854		27.684784		102.393354		-41.991885		5.137205		75.989291		
0.800455		1.947095		0.233293		90.275922		-0.000701		0.921651		0.534502		41.194791		-7.324341		-11.376876		-41.696991		-23.808608		3.668368		14.567205		42.976456		-9.066026		-3.005879		-46.711792		-17.293822		-4.386042		2.329254		-23.539050		3.765862		0.034154		-23.734099		0.647048		2.587225		-67.598214		-1.605569		-69.945303		43.044049		86.892974		-23.894638		-12.986746		23.248437		-74.388960		-11.324450		-60.610499		27.889872		102.340046		-41.784368		4.894997		75.981720		
0.803283		2.014128		0.730657		90.165016		-0.000582		0.910586		0.529840		41.289418		-7.272938		-11.290416		-42.876289		-22.033466		4.918655		14.523002		43.273562		-9.252165		-2.797960		-48.322642		-15.640900		-2.750627		2.488246		-24.363562		3.770699		0.214335		-23.485194		0.905281		2.467451		-66.816454		-2.066648		-68.798945		42.204070		86.053174		-23.793042		-13.370603		23.422915		-73.401530		-11.322322		-59.322301		28.087458		101.610095		-41.520218		4.341280		75.850371		
0.806111		2.068618		1.133702		90.025849		-0.000721		0.899465		0.525545		41.475385		-7.183960		-11.142261		-44.008558		-20.052655		5.558703		14.407788		43.625089		-9.314354		-2.479809		-49.849976		-13.855693		-1.870255		2.568232		-25.167936		3.803893		0.427179		-23.008270		0.927832		2.338846		-65.905019		-2.592043		-67.739551		41.363256		85.422702		-23.838978		-13.596671		23.512161		-72.218477		-11.323006		-58.188237		28.276193		100.913029		-41.342415		3.882462		75.732817		
0.808939		2.143598		1.484269		89.911146		-0.000835		0.888163		0.521378		41.697501		-7.072214		-10.987885		-45.209296		-17.395109		6.413774		14.169595		44.071761		-9.402621		-2.189264		-51.506420		-11.519143		-0.740623		2.541605		-25.920732		3.863110		0.650437		-22.519763		1.004121		2.207697		-65.046586		-3.076085		-66.582889		40.696724		85.063675		-23.920966		-13.877791		23.567643		-71.030258		-11.378643		-57.011351		28.543239		100.272308		-41.129055		3.382772		75.655244		
0.811768		2.274070		1.859256		89.753135		-0.000845		0.876885		0.517358		41.853659		-6.911986		-10.915058		-46.483243		-13.935418		7.550195		12.478333		44.485223		-9.584436		-1.873705		-53.260094		-8.463663		0.716204		1.609030		-26.746517		3.949280		0.885334		-21.921504		1.145336		2.049251		-64.295639		-3.600085		-64.933172		40.297906		84.024399		-24.419001		-14.639587		23.781648		-69.896436		-11.539267		-55.034815		28.691352		98.294840		-41.124529		2.403880		75.461574		
